<svg width="80" height="80" viewBox="0 0 80 80" fill="none" xmlns="http://www.w3.org/2000/svg">
<path d="M40 63C52.7025 63 63 52.7026 63 40C63 27.2975 52.7025 17 40 17C27.2975 17 17 27.2975 17 40C17 52.7026 27.2975 63 40 63Z" fill="#DE972F"/>
<path d="M39.999 79.9999C39.8968 79.9999 39.7937 79.9821 39.6923 79.9448C17.6488 71.8479 5.45501 51.3181 3.44701 18.9261C3.42035 18.4932 3.71012 18.1039 4.13235 18.0052C14.2097 15.6621 23.1323 11.9857 30.6506 7.07725C31.0621 6.8088 31.6123 6.92436 31.8808 7.33591C32.1492 7.74747 32.0337 8.29858 31.6221 8.56613C24.1128 13.4684 15.2497 17.167 5.26923 19.5635C7.38835 51.1866 18.8532 70.3972 40.3048 78.2772C40.7661 78.4461 41.0017 78.9572 40.8328 79.4177C40.7012 79.7768 40.3608 79.9999 39.999 79.9999Z" fill="black"/>
<path d="M39.9983 79.9999C39.8187 79.9999 39.6409 79.9448 39.4898 79.8399C39.2516 79.6737 39.1094 79.4017 39.1094 79.111V57.623C39.1094 57.1314 39.5076 56.7341 39.9983 56.7341C40.4889 56.7341 40.8872 57.1314 40.8872 57.623V77.8221C61.5689 69.6728 72.648 50.5928 74.7271 19.5635C61.152 16.3048 49.7823 10.703 40.8872 2.89412V15.0781C40.8872 15.5688 40.4889 15.967 39.9983 15.967C39.5076 15.967 39.1094 15.5688 39.1094 15.0781V0.888788C39.1094 0.53501 39.3192 0.214121 39.6445 0.0736764C39.9698 -0.066768 40.3476 -0.00187914 40.6054 0.240788C49.632 8.6879 61.4943 14.6657 75.8649 18.0061C76.288 18.1048 76.5778 18.4941 76.5503 18.927C74.5423 51.3181 62.3485 71.8488 40.3049 79.9448C40.2054 79.9812 40.1014 79.9999 39.9983 79.9999Z" fill="black"/>
<path d="M39.9975 58.5121C35.6526 58.5121 31.4286 56.9779 28.1015 54.1939C27.7255 53.8792 27.6757 53.3184 27.9904 52.9424C28.305 52.5655 28.865 52.5148 29.2428 52.8312C32.2499 55.3486 36.0695 56.7352 39.9975 56.7352C49.2401 56.7352 56.7593 49.2161 56.7593 39.9735C56.7593 30.7308 49.2401 23.2099 39.9975 23.2099C30.7548 23.2099 23.2348 30.729 23.2348 39.9726C23.2348 40.4632 22.8366 40.8615 22.3459 40.8615C21.8553 40.8615 21.457 40.4632 21.457 39.9726C21.457 29.7495 29.7744 21.4321 39.9975 21.4321C50.2206 21.4321 58.537 29.7495 58.537 39.9726C58.537 50.1957 50.2206 58.5121 39.9975 58.5121Z" fill="black"/>
<path d="M38.8594 46.8167C38.6043 46.8167 38.3608 46.7064 38.1928 46.5153L32.4132 39.9473C32.0888 39.5784 32.1243 39.0176 32.4932 38.6931C32.8621 38.3678 33.4239 38.4051 33.7474 38.7731L38.855 44.5758L48.599 33.3162C48.919 32.9447 49.4817 32.9056 49.8523 33.2256C50.2239 33.5473 50.2639 34.1082 49.943 34.4798L39.5314 46.5091C39.3634 46.7038 39.1199 46.8158 38.863 46.8167C38.8621 46.8167 38.8603 46.8167 38.8594 46.8167Z" fill="black"/>
</svg>
