<svg width="112" height="80" viewBox="0 0 112 80" fill="none" xmlns="http://www.w3.org/2000/svg">
<path d="M77.2859 18.6191H28.9492V54.7964H77.2859V18.6191Z" fill="#DE972F"/>
<path d="M82.2633 61.0189H55.5202C54.8332 61.0189 54.2757 60.4626 54.2757 59.7744C54.2757 59.0863 54.8332 58.53 55.5202 58.53H81.0188V14.8873H25.2155V19.264C25.2155 19.951 24.6579 20.5085 23.971 20.5085C23.2841 20.5085 22.7266 19.951 22.7266 19.264V13.6429C22.7266 12.9559 23.2841 12.3984 23.971 12.3984H82.2633C82.9515 12.3984 83.5077 12.9559 83.5077 13.6429V59.7744C83.5077 60.4614 82.9515 61.0189 82.2633 61.0189Z" fill="black"/>
<path d="M34.4492 61.0189H23.971C23.2841 61.0189 22.7266 60.4626 22.7266 59.7744V53.5062C22.7266 52.818 23.2841 52.2617 23.971 52.2617C24.6579 52.2617 25.2155 52.818 25.2155 53.5062V58.53H34.4492C35.1362 58.53 35.6937 59.0863 35.6937 59.7744C35.6937 60.4626 35.1362 61.0189 34.4492 61.0189Z" fill="black"/>
<path d="M110.756 61.0189C110.071 61.0189 109.516 60.4676 109.511 59.7832L109.393 42.1904L96.6348 28.799H83.5085V58.53H90.5831C91.2713 58.53 91.8276 59.0863 91.8276 59.7744C91.8276 60.4626 91.2713 61.0189 90.5831 61.0189H82.264C81.5758 61.0189 81.0196 60.4626 81.0196 59.7744V27.5545C81.0196 26.8676 81.5758 26.3101 82.264 26.3101H97.1687C97.5084 26.3101 97.8345 26.4495 98.0697 26.6959L111.535 40.8303C111.754 41.0605 111.876 41.3641 111.878 41.6802L112 59.7657C112.005 60.4539 111.451 61.0139 110.764 61.0189C110.762 61.0189 110.758 61.0189 110.756 61.0189Z" fill="black"/>
<path d="M100.666 42.9321H90.1314C89.4432 42.9321 88.8869 42.3759 88.8869 41.6877V27.5545C88.8869 26.8676 89.4432 26.3101 90.1314 26.3101C90.8196 26.3101 91.3758 26.8676 91.3758 27.5545V40.4445H100.666C101.354 40.4445 101.91 41.002 101.91 41.6889C101.91 42.3759 101.353 42.9321 100.666 42.9321Z" fill="black"/>
<path d="M41.0371 67.6034C36.7201 67.6034 33.207 64.0916 33.207 59.7746C33.207 55.4576 36.7189 51.9458 41.0371 51.9458C45.3541 51.9458 48.8659 55.4576 48.8659 59.7746C48.8659 64.0916 45.3528 67.6034 41.0371 67.6034ZM41.0371 54.4347C38.0927 54.4347 35.6959 56.8302 35.6959 59.7746C35.6959 62.719 38.0915 65.1145 41.0371 65.1145C43.9827 65.1145 46.377 62.719 46.377 59.7746C46.377 56.8302 43.9814 54.4347 41.0371 54.4347Z" fill="black"/>
<path d="M97.1699 67.6034C92.8517 67.6034 89.3398 64.0916 89.3398 59.7746C89.3398 55.4576 92.8517 51.9458 97.1699 51.9458C101.487 51.9458 104.999 55.4576 104.999 59.7746C104.999 64.0916 101.487 67.6034 97.1699 67.6034ZM97.1699 54.4347C94.2255 54.4347 91.8287 56.8302 91.8287 59.7746C91.8287 62.719 94.2255 65.1145 97.1699 65.1145C100.114 65.1145 102.51 62.719 102.51 59.7746C102.51 56.8302 100.114 54.4347 97.1699 54.4347Z" fill="black"/>
<path d="M53.1179 37.9519H1.24444C0.557511 37.9519 0 37.3943 0 36.7074C0 36.0205 0.557511 35.463 1.24444 35.463H53.1179C53.8048 35.463 54.3623 36.0205 54.3623 36.7074C54.3623 37.3943 53.8048 37.9519 53.1179 37.9519Z" fill="black"/>
<path d="M53.1198 27.4166H14.4163C13.7294 27.4166 13.1719 26.8591 13.1719 26.1722C13.1719 25.4852 13.7294 24.9277 14.4163 24.9277H53.121C53.808 24.9277 54.3655 25.4852 54.3655 26.1722C54.3655 26.8591 53.8067 27.4166 53.1198 27.4166Z" fill="black"/>
<path d="M53.1198 48.4874H14.4163C13.7294 48.4874 13.1719 47.9312 13.1719 47.243C13.1719 46.5548 13.7294 45.9985 14.4163 45.9985H53.121C53.808 45.9985 54.3655 46.5548 54.3655 47.243C54.3655 47.9312 53.8067 48.4874 53.1198 48.4874Z" fill="black"/>
</svg>
